<svg id="Layer_1" data-name="Layer 1" xmlns="http://www.w3.org/2000/svg" viewBox="0 0 348.31 347.86"><path d="M181.1,5.37c5.61,0,11.27-.44,16.82.13a110.54,110.54,0,0,1,16.75,3.32c8.87,2.32,17.74,4.71,26.42,7.65,5.09,1.72,9.83,4.52,14.69,6.91,4.31,2.12,8.65,4.19,12.81,6.57a38.06,38.06,0,0,1,6.46,4.95c2,1.82,1.61,3.69-.46,5.35s-4.21,3.5-6.32,5.24c-1.81,1.5-1.89,3-.29,4.77,6.24,6.88,12.2,14,18.71,20.64,5.75,5.83,12.14,11,18.18,16.58,1.91,1.76,3.54,3.84,5.39,5.68,1.67,1.67,3.34,2,5-.16s3.68-4.08,5.26-6.3c1.87-2.62,3.87-2.72,5.83-.48,4,4.53,7.82,9.08,10,14.92,1.9,5.07,4.95,9.7,6.95,14.73,3.87,9.72,8.87,19.14,9.08,30a6.33,6.33,0,0,0,.3,1.84c5.19,15,3.42,30.51,2.58,45.86-.78,14.11-5.48,27.4-9.53,40.79a92.61,92.61,0,0,1-5.21,13.49c-2.28,4.71-5.15,9.13-7.79,13.66-1.85,3.18-3.36,6.65-5.72,9.41-3.26,3.8-6,3.05-8.13-1.6a16,16,0,0,0-1.9-3.6c-2.07-2.55-4.25-2.48-6.72-.29-5.39,4.76-11.07,9.21-16.24,14.19-6.07,5.84-11.75,12.08-17.55,18.2-2.38,2.52-4.48,5.32-7,7.74-3.75,3.67-3.6,6.78.76,9.76.2.14.42.27.63.39,6.9,4.14,6.92,7.15-.23,11.3-4.35,2.53-9,4.52-13.46,6.87s-9,5.05-13.54,7.43a36.18,36.18,0,0,1-4.9,1.66c-3.51,1.22-7,2.49-10.52,3.72a33.15,33.15,0,0,1-3.21,1c-6.23,1.48-12.41,3.46-18.74,4.25a198.29,198.29,0,0,1-22.75,1.13c-6.72.07-13.45-.42-20.18-.66a11,11,0,0,1-2.23-.15c-8.42-2.14-16.89-4.11-25.22-6.53a154.6,154.6,0,0,1-18-6.32c-7.73-3.32-15.34-7-22.73-11-2.73-1.48-4.91-4.19-6.89-6.7-.52-.67.24-3,1.07-4a57.73,57.73,0,0,1,5.68-5.36c2.11-1.94,1.82-3.93.06-5.88-8-8.86-15.75-17.88-24-26.46-3.57-3.72-8.16-6.44-12.15-9.78-1.9-1.59-3.43-3.61-5.18-5.38s-3.51-2.17-5.29.18-3.7,4.37-5.48,6.61c-1.44,1.81-3.27,2.26-4.8.65A59.17,59.17,0,0,1,31.62,264c-2.62-4-4.83-8.34-7.22-12.53a8.57,8.57,0,0,1-.83-1.23c-2.29-6.13-4.82-12.19-6.75-18.42-2.79-9-5.75-18-7.51-27.28C8,197.36,8,189.87,8,182.54c0-8.33-.23-16.8,1.15-24.95,1.53-9.1,4.75-17.91,7.26-26.85.24-.83,1-1.6,1-2.4,0-6.53,3.42-11.92,6.16-17.41A244.92,244.92,0,0,1,36.93,87.11c2.52-3.88,4.57-3.32,7.12.51.41.63.78,1.28,1.23,1.88,4.32,5.84,5,5.76,10.41.84,4.48-4.1,9.46-7.66,14-11.73,4.22-3.83,8.21-7.93,12.13-12.08,4.59-4.86,9-9.94,13.48-14.86,2.85-3.1,2.62-6.16-1-8.39-2.45-1.51-5.56-2.65-5.05-6.16.55-3.75,2.79-6.21,6.56-7.85,5.27-2.28,10-5.95,15.25-8.13,5.66-2.33,10.57-6.68,17.16-6.7a6.93,6.93,0,0,0,3.58-.9c8.08-5.3,17.68-5.6,26.62-7.54,7.25-1.57,15.12-.32,22.72-.32Zm-1.92,14.8-.06.9c-2.74,0-5.48-.06-8.22,0-4,.11-8.05-.14-11.93.58-6.39,1.18-12.67,3-19,4.62a23.76,23.76,0,0,0-4,2c-1.74.86-3.42,2.1-5.27,2.44-4.44.81-8.54,1.93-12.42,4.59-4.68,3.22-5.11,4-1,8.32,2.92,3.06,3.1,5.2.41,8.53a91.15,91.15,0,0,1-6.21,7c-11.33,11.37-22.65,22.76-34.11,34C70.82,99.56,64.06,105.83,57.21,112c-5.77,5.19-5.88,5.07-12.56.49-2.73-1.88-4.34-1.32-5.36,1.71-1.94,5.72-3.59,11.59-6,17.09-3.57,8-5.1,16.41-7,24.88A106.63,106.63,0,0,0,24,179.87a269,269,0,0,0,1.93,27.47c.5,4.63,2,9.15,3.12,13.7a19.46,19.46,0,0,0,1.36,3.48c2.66,5.74,5.5,11.4,8,17.21,2.58,6.05,4.8,6.58,9,1.63,2-2.36,4.15-2.77,6.45-.75,6.26,5.49,12.6,10.89,18.58,16.67,7.59,7.33,14.93,14.93,22.23,22.55,7.65,8,15.15,16.13,22.65,24.27,2,2.16,2.38,4.61.33,7.08-3.55,4.28-3,6.63,2.33,8.76,5.12,2.07,10.66,3.41,15.32,6.22,7.88,4.75,16.95,4.81,25.36,7,9,2.34,18.77,1.75,28.22,1.95a61.8,61.8,0,0,0,16-1.34c14.05-3.43,28.17-6.76,41.29-13.24,5.07-2.51,5.47-3.34,1.37-7.45s-4.19-6.16-.42-10.14c9.53-10,18.94-20.18,28.78-29.88,10.2-10,20.81-19.66,31.33-29.38,5.41-5,5.47-4.88,11.46-1,1.92,1.27,4.28,2,5.42-.64,2.4-5.54,4.4-11.26,6.52-16.92.74-2,1.31-4,2-6,.85-2.46,2-4.84,2.58-7.35,1-4.29,1.75-8.65,2.6-13,.65-3.35,1.56-6.69,1.89-10.07a118.42,118.42,0,0,0,.52-13.45c-.2-10.69.21-21.41-3.89-31.7-2.34-5.85-3.7-12.09-5.77-18.06-1.24-3.57-3-7-4.54-10.43a12,12,0,0,0-.61-1.75c-1-1.59-2.06-4.45-3-4.4-1.77.09-3.8,1.53-5.11,3-3.1,3.4-5,3.47-8.32.29-6.08-5.77-12.38-11.31-18.5-17C283.8,91,277,84.87,270.77,78.31c-8-8.33-15.5-17.1-23.28-25.63-3.15-3.46-3.23-5.53,0-9,2.69-2.88,2.3-5.51-1.14-7.14-12.36-5.87-25.45-9.86-38.57-13.28C198.57,20.91,188.72,21.12,179.18,20.17Z" transform="translate(-7.97 -5.21)"/><path d="M182,101.38c18.34,0,36.67-.06,55,.13,1.39,0,3.84,1.74,3.95,2.85a78.19,78.19,0,0,1,.21,14.83c-.33,3.48-3.4,4.77-7.92,4.23-4.91-.58-6.63,1.18-6.61,6.22q.15,47.9.18,95.78c0,.87-.18,1.74-.25,2.6-.26,3.63,1,5,4.77,5,1.87,0,3.74-.17,5.6-.11,3.57.12,5,1.61,5,5.09s-.05,7.23-.13,10.84c-.09,4.82-1.87,6.83-6.67,7.24-2.6.22-5.23.09-7.84.1H132.57a12.32,12.32,0,0,0-3,.06c-5.26,1.4-7.44-1-7.66-7.05-.13-3.73-.05-7.48.08-11.22.11-3.26,1.83-5.07,5.2-5.06,2.12,0,4.24.18,6.35.06,2.83-.16,4.67-1.31,4.52-4.64q-.37-8.77-.37-17.56-.06-37.23,0-74.46c0-2.24.15-4.48.24-6.72.18-4.47-2.25-6.78-6.59-6.27-6.54.76-9.45-1.7-9.42-8.22a78.17,78.17,0,0,1,.61-10c.35-2.56,2.1-3.61,4.82-3.6,18.21.08,36.42,0,54.63,0Z" transform="translate(-7.97 -5.21)"/></svg>