<?xml version="1.0" encoding="utf-8"?>
<!-- Generator: Adobe Illustrator 22.0.0, SVG Export Plug-In . SVG Version: 6.00 Build 0)  -->
<svg version="1.1" id="Layer_1" xmlns="http://www.w3.org/2000/svg" xmlns:xlink="http://www.w3.org/1999/xlink" x="0px" y="0px"
	 viewBox="0 0 52 52" style="enable-background:new 0 0 52 52;" xml:space="preserve">
<path d="M47.9,1.2c-5.2,1.9-9.3,6.9-9.3,6.9l0,0c2.1,2.2,3.4,5,3.4,8c0,5.9-4.9,10.9-11.5,12.5c0,0,0,0,0,0l0,0
	C27.6,26.1,27.9,18,27.9,18c0-1.5-0.7-3.1-1.9-3.1s-1.9,1.6-1.9,3.1c0,0,0.3,8.2-2.6,10.7C14.9,27,10,22.1,10,16.1
	c0-3,1.3-5.8,3.4-8c0,0-4.5-5.2-9.4-7C8.6,5.5,7.4,10,6.9,12s-1.7,5-1.3,8.2c0,0,0,0,0-0.1c0,0,0,0,0,0.1c0,7.2,5.7,13.4,13.7,15.6
	c0,0.7,0,1.5,0,2.4c0,2.1,0.9,3.7,2.2,4.7v3.3c0,2.5,2,4.6,4.4,4.6s4.4-2.1,4.4-4.6v-3.3c1.4-1,2.2-2.6,2.2-4.7c0-0.9,0-1.7,0-2.4
	c8-2.2,13.7-8.4,13.7-15.6c0.4-3.2-0.8-6.3-1.3-8.2S43.4,5.5,47.9,1.2z M28.4,45.2c0,1.6-1.1,3-2.4,3s-2.4-1.3-2.4-3v-5.9
	c0-1.6,1.1-3,2.4-3s2.4,1.3,2.4,3V45.2z"/>
</svg>
