<svg id="Layer_1" data-name="Layer 1" xmlns="http://www.w3.org/2000/svg" viewBox="0 0 43.9 49.7"><path d="M47.9,1.2c-5.2,1.9-9.3,6.9-9.3,6.9h0a11.64,11.64,0,0,1,3.4,8C42,22,37.1,27,30.5,28.6h0C27.6,26.1,27.9,18,27.9,18c0-1.5-.7-3.1-1.9-3.1s-1.9,1.6-1.9,3.1c0,0,.3,8.2-2.6,10.7C14.9,27,10,22.1,10,16.1a11.64,11.64,0,0,1,3.4-8S8.9,2.9,4,1.1A10.16,10.16,0,0,1,6.9,12c-.5,2-1.7,5-1.3,8.2v0c0,7.2,5.7,13.4,13.7,15.6v2.4a5.75,5.75,0,0,0,2.2,4.7v3.3a4.55,4.55,0,0,0,4.4,4.6,4.55,4.55,0,0,0,4.4-4.6V42.9a5.49,5.49,0,0,0,2.2-4.7V35.8c8-2.2,13.7-8.4,13.7-15.6.4-3.2-.8-6.3-1.3-8.2A10.31,10.31,0,0,1,47.9,1.2Zm-19.5,44c0,1.6-1.1,3-2.4,3s-2.4-1.3-2.4-3V39.3c0-1.6,1.1-3,2.4-3s2.4,1.3,2.4,3Z" transform="translate(-4 -1.1)"/></svg>