<svg id="svg4233" xmlns="http://www.w3.org/2000/svg" viewBox="0 0 482.54 521"><path id="path4783" class="cls-1" d="M448.63,167.8s-166,0-383.8,10.37C407.14,398.59,433.07,632,433.07,632c181.52-207.45,28.52-492.71,28.52-492.71Z" transform="translate(-45.45 -125.48)"/><path id="path4785" class="cls-1" d="M466.78,297.46l-153,10.37,119.29,140S484.93,383,466.78,297.46Z" transform="translate(-45.45 -125.48)"/><path id="path4803" d="M460.72,152.43c-10.72,2.25-7.49,20.36-21.29,14.79-112.38,3.59-224.95,3.6-337.19,10.33C92.18,175.9,83,187.5,93.32,194.32c46.27,37.58,95.49,71.41,138.32,113.07,89.58,84,164.49,186.56,198.48,305.73,8.64,12.63,21.31-3.57,26.42-11.46,53-75.31,72.17-170.39,62.53-261.17-6.79-63.61-22.85-127-51.18-184.51C466.35,153.65,463.63,151.89,460.72,152.43Zm6.44,145.35c10.3,51.74-3.59,106.77-33.79,149.79q-60.17-68.61-118.2-139C365.05,303.28,417,300.68,467.16,297.78Z" transform="translate(-45.45 -125.48)"/><path id="path4805" d="M85.8,178.37c-5.66.44-7.55,7.89-3.34,11.38,3.27,5.1,12.35,2.42,11.65-3.79C94,181.88,89.71,178.47,85.8,178.37Z" transform="translate(-45.45 -125.48)"/></svg>