<svg xmlns:xlink="http://www.w3.org/1999/xlink" xmlns:dc="http://purl.org/dc/elements/1.1/" xmlns:cc="http://creativecommons.org/ns#" xmlns:rdf="http://www.w3.org/1999/02/22-rdf-syntax-ns#" xmlns:svg="http://www.w3.org/2000/svg" xmlns="http://www.w3.org/2000/svg" xmlns:sodipodi="http://sodipodi.sourceforge.net/DTD/sodipodi-0.dtd" xmlns:inkscape="http://www.inkscape.org/namespaces/inkscape" id="svg4233" version="1.1" inkscape:version="0.91 r13725" width="100%" height="100%" viewBox="0 0 50 50" sodipodi:docname="Vazarin_Pol.svg">
  <metadata id="metadata4239">
    <rdf:RDF>
      <cc:Work rdf:about="">
        <dc:format>image/svg+xml</dc:format>
        <dc:type rdf:resource="http://purl.org/dc/dcmitype/StillImage"/>
        <dc:title/>
      </cc:Work>
    </rdf:RDF>
  </metadata>
  <defs id="defs4237"/>
  <sodipodi:namedview pagecolor="#ffffff" bordercolor="#666666" borderopacity="1" objecttolerance="10" gridtolerance="10" guidetolerance="10" inkscape:pageopacity="0" inkscape:pageshadow="2" inkscape:window-width="1366" inkscape:window-height="706" id="namedview4235" showgrid="false" inkscape:zoom="4.72" inkscape:cx="6.1234234" inkscape:cy="36.761615" inkscape:window-x="-8" inkscape:window-y="-8" inkscape:window-maximized="1" inkscape:current-layer="svg4233"/>
  <path style="fill:none;fill-opacity:1;fill-rule:evenodd;stroke:#000000;stroke-width:1px;stroke-linecap:butt;stroke-linejoin:miter;stroke-opacity:1" d="m 36.652538,6.3559322 c 0,0 -13.559317,0 -31.355928,0.8474576 C 33.262712,25.211865 35.381356,44.279661 35.381356,44.279661 50.211868,27.330509 37.711868,4.0254237 37.711868,4.0254237 Z" id="path4783" inkscape:connector-curvature="0" sodipodi:nodetypes="ccccc"/>
  <path style="fill:none;fill-rule:evenodd;stroke:#000000;stroke-width:1px;stroke-linecap:butt;stroke-linejoin:miter;stroke-opacity:1" d="m 38.135598,16.949153 -12.500004,0.847458 9.745763,11.440678 c 0,0 4.237291,-5.29661 2.754241,-12.288136 z" id="path4785" inkscape:connector-curvature="0" sodipodi:nodetypes="cccc"/>
  <path style="fill:#000000;fill-opacity:1;fill-rule:nonzero;stroke:none;stroke-width:0.5;stroke-miterlimit:4;stroke-dasharray:none;stroke-opacity:1" d="M 37.640856,5.1003873 C 36.765017,5.2841879 37.028695,6.7637876 35.901504,6.308675 26.719831,6.602264 17.523026,6.6025768 8.3526715,7.15241 7.5312902,7.0176536 6.7787941,7.9655835 7.6243876,8.5229078 11.40461,11.59298 15.425424,14.356797 18.925202,17.760941 c 7.318042,6.861254 13.4384,15.241864 16.215076,24.977241 0.705891,1.031852 1.741461,-0.291445 2.158368,-0.93601 C 41.62747,35.649636 43.195017,27.881506 42.40768,20.465226 41.853131,15.267761 40.540519,10.085642 38.225966,5.3904595 38.100324,5.1997821 37.878597,5.0560634 37.640856,5.1003873 Z m 0.525938,11.8751657 c 0.841342,4.226753 -0.293565,8.723053 -2.760444,12.237653 -3.277079,-3.736753 -6.494106,-7.526665 -9.656797,-11.35585 4.074873,-0.432813 8.315945,-0.644555 12.417241,-0.881803 z" id="path4803" inkscape:connector-curvature="0"/>
  <path style="fill:#000000;fill-opacity:1;fill-rule:nonzero;stroke:none;stroke-width:0.5;stroke-miterlimit:4;stroke-dasharray:none;stroke-opacity:1" d="M 7.0101176,7.2193778 C 6.5475877,7.255502 6.3929253,7.8639901 6.7369076,8.1492846 7.0042471,8.5658337 7.745735,8.3471082 7.6887024,7.8401981 7.6791581,7.5065169 7.3290564,7.2277311 7.0101176,7.2193778 Z" id="path4805" inkscape:connector-curvature="0"/>
</svg>